<svg version="1" xmlns="http://www.w3.org/2000/svg" width="666.667" height="666.667" viewBox="0 0 500.000000 500.000000"><path d="M38.6 24.7c-2.3 4.6-11.2 29.1-15 41.3-17.1 55.6-25 129.4-22.5 209.6 2.3 74.3 11.4 131.8 29.6 188.2l4.6 14.2h75.6l-.9-2.8c-8.1-27.5-9.8-33.8-15.6-59.7-6-26.7-11.9-69.9-14.6-106-1.6-22.3-1.6-98.8 0-120.5 3.6-47.5 9.9-88.7 19.6-127.6 2.2-8.9 9.4-33.1 11.2-37.7.6-1.6-1.7-1.7-35-1.7H40.1l-1.5 2.7zM388 22.9c0 .5 1.1 4.2 2.4 8.2 15.1 45.7 24.1 93.6 29.8 158.9 1.7 19.5 1.7 108.3 0 128-4.9 56-12 97.6-24.3 142.6-2.1 7.8-4.2 14.9-4.5 15.8-.6 1.5 2.8 1.6 37.2 1.4l37.9-.3 2.3-6.5c13-36.1 24.2-95.1 28.2-148 3.2-42.1 3-103.5-.5-143.5-3.9-44.4-11.4-82.8-23-117.8-4.4-13.3-11.4-31.6-14.1-36.8l-1.5-2.9H423c-19.7 0-35 .4-35 .9z"/><path d="M103.7 101.2c-.3 1.8-1.7 9.5-3.1 17.2-2.6 14-5.8 37.3-7.6 56.6-3.4 35.7-3.4 111.1 0 148.8 2.3 25.3 8.3 68.3 10.6 76.4.5 1.7 3.2 1.8 39.1 1.8h38.5l-.6-2.6c-1-3.7-5.3-31.6-7-45.4-1.4-11.1-3.8-37.8-5.2-58.5-.8-13-.8-80.1 0-93 2.5-36.1 6-67.9 10.4-94.3l1.8-10.2H104.3l-.6 3.2zM315.1 116.2c-4.9 10.1-19.1 39-31.6 64.3l-22.7 46 6.6 13c3.7 7.1 11.8 22.9 18.1 35l11.4 22 16.7-34c9.1-18.7 21.5-43.9 27.4-56 5.9-12.1 20.3-41.3 31.9-64.9 11.6-23.6 21.1-43 21.1-43.2 0-.2-15.8-.4-35.1-.4h-35l-8.8 18.2z"/><path d="M189.6 113.7c-3.8 18.7-8.1 60-9.7 91.9l-1.2 24 10.8 22c5.9 12 14.3 29.2 18.7 38.1l7.9 16.3H252c19.8 0 36-.2 36-.5 0-.5-96.9-193.6-97.5-194.3-.2-.2-.6.9-.9 2.5zM378.5 156.3c-10.9 22.1-25.8 52.3-33.1 67.2l-13.1 27-.6 26.5c-.9 40.1-6 91.1-12.3 122.3l-.6 2.7H396l.5-2.3c2.9-12.7 8.6-55.2 10.4-78.2 2.9-36 3.5-94.7 1.2-128-1.7-25.6-7.8-75.6-9.5-77.2-.1-.2-9.2 17.8-20.1 40z"/></svg>